<svg xmlns="http://www.w3.org/2000/svg" width="60" height="60" viewBox="0 0 60 60">
  <g id="Grupo_3639" data-name="Grupo 3639" transform="translate(-63 -194)">
    <circle id="back" cx="30" cy="30" r="30" transform="translate(63 194)" fill="#25d366"/>
    <g id="whatsApp" transform="translate(77.792 209.084)">
      <path id="Caminho_10269" data-name="Caminho 10269" d="M112.64,142.526l2.15-7.858a15.159,15.159,0,1,1,13.137,7.6h-.006a15.143,15.143,0,0,1-7.244-1.845Zm8.408-4.853.461.273a12.583,12.583,0,0,0,6.413,1.756h.005a12.6,12.6,0,1,0-10.674-5.905l.3.477-1.274,4.65Z" transform="translate(-112.64 -111.93)" fill="#fff"/>
      <path id="Caminho_10270" data-name="Caminho 10270" d="M199.454,199.37c-.095-.158-.347-.253-.726-.443s-2.241-1.105-2.588-1.231-.6-.19-.85.19-.978,1.233-1.2,1.487-.442.285-.821.094a10.335,10.335,0,0,1-3.046-1.881,11.367,11.367,0,0,1-2.107-2.624c-.22-.379-.023-.584.166-.773.171-.17.379-.443.568-.664a2.6,2.6,0,0,0,.379-.637.7.7,0,0,0-.032-.664c-.095-.19-.85-2.054-1.168-2.812s-.62-.637-.85-.651-.474-.013-.726-.013a1.392,1.392,0,0,0-1.01.474,4.248,4.248,0,0,0-1.325,3.16,7.36,7.36,0,0,0,1.547,3.918c.19.253,2.671,4.079,6.471,5.719a21.736,21.736,0,0,0,2.16.8,5.191,5.191,0,0,0,2.385.15,3.883,3.883,0,0,0,2.557-1.805A3.118,3.118,0,0,0,199.454,199.37Z" transform="translate(-176.529 -180.592)" fill="#fff" fill-rule="evenodd"/>
    </g>
  </g>
</svg>
